<svg width="48" height="48" viewBox="0 0 48 48" fill="none" xmlns="http://www.w3.org/2000/svg">
<path fill-rule="evenodd" clip-rule="evenodd" d="M41.6 31.8001C41.6 32.3523 41.1523 32.8001 40.6 32.8001H31.925C31.6598 32.8001 31.4054 32.6947 31.2179 32.5072L27.8179 29.1072C27.4274 28.7167 27.4274 28.0835 27.8179 27.693L31.2179 24.293C31.4054 24.1054 31.6598 24.0001 31.925 24.0001H40.6C41.1523 24.0001 41.6 24.4478 41.6 25.0001V31.8001ZM37.1939 40.6005C37.1936 41.1526 36.746 41.6 36.1939 41.6H7.4C6.84772 41.6 6.4 41.1523 6.4 40.6V16.2001C6.4 15.6478 6.84772 15.2001 7.4 15.2001H36.2C36.7523 15.2001 37.2 15.6478 37.2 16.2001V18.6001C37.2 19.1524 36.7523 19.6001 36.2 19.6001H30.6C30.017 19.6001 29.4582 19.8311 29.0446 20.2447L22.4446 26.8447C21.5844 27.7049 21.5844 29.0953 22.4446 29.9577L29.0446 36.5576C29.4582 36.9668 30.017 37.2 30.6 37.2H36.1951C36.7476 37.2 37.1954 37.6481 37.1951 38.2005L37.1939 40.6005ZM28.683 7.33598C29.1659 7.14277 29.7163 7.352 29.9489 7.81721L30.7168 9.35292C31.0492 10.0178 30.5657 10.8001 29.8224 10.8001H25.2161C24.1151 10.8001 23.8224 9.28068 24.8446 8.87169L28.683 7.33598ZM43.8 19.6001H42.6C42.0477 19.6001 41.6 19.1524 41.6 18.6001V15.2001C41.6 12.7735 39.6266 10.8001 37.2 10.8001H36.9776C36.5988 10.8001 36.2526 10.5862 36.0832 10.2475L32.5668 3.21677C32.0564 2.19377 30.8464 1.73397 29.7816 2.15637L8.35423 10.7286C8.2361 10.7759 8.11003 10.8001 7.98279 10.8001H6.4C3.9734 10.8001 2 12.7735 2 15.2001V41.6C2 44.0266 3.9734 46 6.4 46H37.2C39.6266 46 41.6 44.0266 41.6 41.6V38.2C41.6 37.6478 42.0477 37.2 42.6 37.2H43.8C45.0144 37.2 46 36.2144 46 35V21.8001C46 20.5857 45.0144 19.6001 43.8 19.6001Z" fill="#541E66"/>
<path fill-rule="evenodd" clip-rule="evenodd" d="M30.6 28.4001C30.6 29.6167 31.5856 30.6001 32.8 30.6001C34.0144 30.6001 35 29.6167 35 28.4001C35 27.1879 34.0144 26.2001 32.8 26.2001C31.5856 26.2001 30.6 27.1879 30.6 28.4001Z" fill="#541E66"/>
</svg>
