<svg width="48" height="48" viewBox="0 0 48 48" fill="none" xmlns="http://www.w3.org/2000/svg">
<path fill-rule="evenodd" clip-rule="evenodd" d="M13 26.25C11.7856 26.25 10.8 27.258 10.8 28.5C10.8 29.742 11.7856 30.75 13 30.75C14.2144 30.75 15.2 29.742 15.2 28.5C15.2 27.258 14.2144 26.25 13 26.25Z" fill="#800D63"/>
<path fill-rule="evenodd" clip-rule="evenodd" d="M35 26.25C33.7856 26.25 32.8 27.258 32.8 28.5C32.8 29.742 33.7856 30.75 35 30.75C36.2144 30.75 37.2 29.742 37.2 28.5C37.2 27.258 36.2144 26.25 35 26.25Z" fill="#800D63"/>
<path fill-rule="evenodd" clip-rule="evenodd" d="M37.2 33H10.8C8.3734 33 6.4 30.9818 6.4 28.5C6.4 26.0182 8.3734 24 10.8 24H37.2C39.6266 24 41.6 26.0182 41.6 28.5C41.6 30.9818 39.6266 33 37.2 33ZM16.6087 10.5H31.3927C32.4377 10.5 33.3463 11.2605 33.5509 12.309L35.3967 19.5H12.6047L14.4505 12.3067C14.6551 11.2605 15.5637 10.5 16.6087 10.5ZM46 28.5C46 24.5378 43.4656 21.2032 39.9808 20.004L37.8644 11.427C37.2506 8.2815 34.5292 6 31.392 6H16.608C13.4708 6 10.7494 8.2815 10.1356 11.4247L8.0192 20.004C4.5344 21.2032 2 24.5378 2 28.5C2 31.8165 3.782 34.6875 6.4 36.2467V37.5C6.4 39.75 6.4 42 9.7 42C13 42 13 39.75 13 37.5H35C35 39.75 35 42 38.3 42C41.6 42 41.6 39.75 41.6 37.5C41.6 35.25 41.6 36.2467 41.6 36.2467C44.218 34.6875 46 31.8165 46 28.5Z" fill="#800D63"/>
<path fill-rule="evenodd" clip-rule="evenodd" d="M19.6 28.5C19.6 29.7426 20.585 30.75 21.8 30.75H26.2C27.415 30.75 28.4 29.7426 28.4 28.5C28.4 27.2574 27.415 26.25 26.2 26.25H21.8C20.585 26.25 19.6 27.2574 19.6 28.5Z" fill="#800D63"/>
</svg>
