<svg width="48" height="48" viewBox="0 0 48 48" fill="none" xmlns="http://www.w3.org/2000/svg">
<path fill-rule="evenodd" clip-rule="evenodd" d="M24 28.457C17.6983 28.457 12.5714 23.5384 12.5714 17.4926C12.5714 14.6556 13.7234 11.999 15.6637 10.0106C16.2333 9.42694 17.1429 9.87554 17.1429 10.6911V15.2998C17.1429 18.9268 20.2194 21.8784 24 21.8784C27.7806 21.8784 30.8571 18.9268 30.8571 15.2998V10.6911C30.8571 9.87554 31.7667 9.42694 32.3363 10.0106C34.2766 11.999 35.4286 14.6556 35.4286 17.4926C35.4286 23.5384 30.3017 28.457 24 28.457ZM40 17.4926C40 11.0105 35.7143 5.1994 29.3326 3.03504L27.6074 2.44897C26.9588 2.22865 26.2857 2.71086 26.2857 3.39583V15.2998C26.2857 16.5102 25.2594 17.4926 24 17.4926C22.7406 17.4926 21.7143 16.5102 21.7143 15.2998V3.39583C21.7143 2.71086 21.0412 2.22865 20.3926 2.44897L18.6674 3.03504C12.2857 5.1994 8 11.0105 8 17.4926C8 23.3792 11.4805 28.4874 16.5645 31.0619C16.9134 31.2386 17.1429 31.5914 17.1429 31.9826V45C17.1429 45.5523 17.5906 46 18.1429 46H20.7143C21.2666 46 21.7143 45.5523 21.7143 45V33.8428C21.7143 33.2905 22.162 32.8428 22.7143 32.8428H25.2857C25.838 32.8428 26.2857 33.2905 26.2857 33.8428V45C26.2857 45.5523 26.7334 46 27.2857 46H29.8571C30.4094 46 30.8571 45.5523 30.8571 45V31.9826C30.8571 31.5914 31.0866 31.2386 31.4355 31.0619C36.5195 28.4874 40 23.3792 40 17.4926Z" fill="#DE0C74"/>
</svg>
